#N canvas 825 371 955 393 10;
#X obj 118 193 makenote 12 500;
#X obj 118 319 noteout;
#X msg 185 243 16;
#X obj 95 64 metro 700;
#X obj 88 28 tgl 15 0 empty empty empty 17 7 0 10 -262144 -1 -1 1 1
;
#X obj 175 49 hsl 128 15 0 127 0 0 empty empty empty -2 -8 0 10 -262144
-1 -1 4500 1;
#X obj 332 277 ctlout 7 16;
#X obj 332 109 vsl 15 128 0 127 0 0 empty empty global_fade_out 0 -9
0 10 -262144 -1 -1 1600 1;
#X obj 427 109 vsl 15 128 0 127 0 0 empty empty global_fade_in 0 -9
0 10 -262144 -1 -1 6200 1;
#X obj 427 281 ctlout 8 16;
#X obj 143 15 hsl 128 15 200 1000 0 0 empty empty empty -2 -8 0 10
-262144 -1 -1 9700 1;
#X obj 190 112 random 128;
#X obj 527 111 vsl 15 128 0 127 0 0 empty empty first_fade_out 0 -9
0 10 -262144 -1 -1 11700 1;
#X obj 106 97 bng 15 250 50 0 empty empty empty 17 7 0 10 -262144 -1
-1;
#X obj 527 279 ctlout 1 16;
#X obj 619 108 vsl 15 128 0 127 0 0 empty empty second_fade_out 0 -9
0 10 -262144 -1 -1 900 1;
#X obj 619 276 ctlout 2 16;
#X obj 717 105 vsl 15 128 0 127 0 0 empty empty third_fade_out 0 -9
0 10 -262144 -1 -1 3700 1;
#X obj 717 273 ctlout 3 16;
#X obj 102 131 random 3;
#X obj 107 162 + 64;
#X connect 0 0 1 0;
#X connect 0 1 1 1;
#X connect 2 0 1 2;
#X connect 3 0 13 0;
#X connect 4 0 3 0;
#X connect 5 0 0 1;
#X connect 7 0 6 0;
#X connect 8 0 9 0;
#X connect 10 0 3 1;
#X connect 11 0 0 1;
#X connect 12 0 14 0;
#X connect 13 0 11 0;
#X connect 13 0 19 0;
#X connect 15 0 16 0;
#X connect 17 0 18 0;
#X connect 19 0 20 0;
#X connect 20 0 0 0;
